<?xml version="1.0" encoding="utf-8"?>
<!-- Generator: Adobe Illustrator 26.5.0, SVG Export Plug-In . SVG Version: 6.00 Build 0)  -->
<svg version="1.1" id="Layer_1" xmlns="http://www.w3.org/2000/svg" xmlns:xlink="http://www.w3.org/1999/xlink" x="0px" y="0px"
	 viewBox="0 0 520.5 100.5" style="enable-background:new 0 0 520.5 100.5;" xml:space="preserve">
<style type="text/css">
	.st0{fill:#FFFFFF;}
	.st1{fill:none;stroke:#FFFFFF;stroke-width:1.667;stroke-linecap:square;stroke-miterlimit:10;}
	.st2{fill:none;}
</style>
<g>
	<path class="st0" d="M486.3,23.7h23.3c5.3,0,9.6,4.1,9.6,9.2v21h-34.8c-3.2,0-5.9-2.5-5.9-5.6v-7.3c0-2.9,2.4-5.2,5.4-5.2h19.3
		l-2,4.3H487c-0.6,0-1.3,0.5-1.3,1.1V47c0,0.7,0.7,1.1,1.3,1.1h24.7V34.3c0-2.7-2.4-4.7-5.1-4.7h-23.1L486.3,23.7z M346.9,17.1v-4.5
		h-7.5v8.7L346.9,17.1z M339.3,25.6l7.5-4.3V54h-7.5V25.6z M384.8,23.7c5.3,0,9.6,4.1,9.6,9.2v21h-7.5V34.3c0-2.7-2.4-4.7-5.1-4.7
		h-18.1V54h-7.5V23.7C365.7,23.7,375.2,23.7,384.8,23.7 M481,23.7h-18.9c-5.3,0-9.6,4.1-9.6,9.2v21h7.5V34.3c0-2.7,2.4-4.7,5.1-4.7
		h13L481,23.7z M228.5,54h7.5v-21c0-5.1-4.3-9.2-9.6-9.2h-49.3V54h7.5V30.7c0-0.7,0.7-1.1,1.3-1.1h15.5c0.6,0,1.3,0.5,1.3,1.1V54
		h7.5V30.7c0-0.7,0.7-1.1,1.3-1.1h11.8c2.7,0,5.1,2,5.1,4.7V54z M291.2,12.7V54h7.5v0V12.7H291.2z M322.5,54h7.5v-21
		c0-5.1-4.3-9.2-9.6-9.2h-16l-2.8,5.9h15.8c2.7,0,5.1,2,5.1,4.7V54z M441.8,12.7V54h-34c-3.2,0-5.9-2.5-5.9-5.6V32.9
		c0-5.1,4.3-9.2,9.6-9.2h19.3l-2.9,5.9h-13.5c-2.7,0-5.1,2-5.1,4.7V47c0,0.7,0.7,1.1,1.3,1.1h23.5V12.7H441.8z M250.4,23.7h23.3
		c5.3,0,9.6,4.1,9.6,9.2v21h-34.8c-3.2,0-5.8-2.5-5.8-5.6v-7.3c0-2.9,2.4-5.2,5.4-5.2h19.3l-2,4.3h-14.2c-0.6,0-1.3,0.5-1.3,1.1V47
		c0,0.7,0.7,1.1,1.3,1.1h24.7V34.3c0-2.7-2.4-4.7-5.1-4.7h-23.1L250.4,23.7z"/>
	<path class="st0" d="M145.3,4.1c-0.3,0.3-0.7,0.7-1,1l-3,2.5l-3,2.5l-3,2.5l-3,2.5l-3,2.5l-3,2.5l-3,2.5l-3,2.5l-3,2.5l-3,2.5
		l-3,2.5l-3,2.5l-3,2.5l-3,2.5L99,43l-3,2.5l-3,2.5l-3,2.5l-3,2.5l-3,2.5l-3,2.5c-0.9,0.7-1.7,1.4-2.6,2.2c0,5.8,0,11.5,0,17.3
		c8,7.1,16,14.3,24.1,21.5c4.1,0,8.3,0,12.4,0c2.8-8,5.5-15.7,7.9-22.9l0.3-1l0.4-1l0.3-1l0.3-1l0.3-1l0.3-1l0.3-1l0.3-1l0.3-1
		l0.3-1l0.3-1l0.3-1l0.3-1l0.3-1l0.3-1l0.3-1l0.3-1l0.3-1l0.3-1l0.3-1l0.3-1l0.3-1l0.3-1l0.7-2.2l0.7-2.2l0.7-2.2l0.7-2.2l0.7-2.2
		l0.7-2.2l0.7-2.2l0.7-2.2l0.7-2.2l0.7-2.2l0.7-2.2l0.7-2.2l0.7-2.2l0.7-2.2l0.7-2.2l0.6-2.2l0.6-2.2l0.6-2.2l0.6-2.2l0.6-2.2
		l0.6-2.2C144.9,5.5,145.1,4.8,145.3,4.1 M142.6,8.3c-0.2,0.6-0.3,1.2-0.5,1.8l-0.6,2l-0.6,2l-0.6,2l-0.6,2l-0.6,2l-0.6,2l-0.6,2
		l-0.6,2l-0.6,2l-0.6,2l-0.6,2l-0.6,2l-0.6,2l-0.6,2l-0.6,2l-0.6,2l-0.6,2l-0.6,2l-0.6,2l-0.6,2l-0.6,2l-0.3,1l-0.3,1l-0.3,1l-0.3,1
		l-0.3,1l-0.3,1l-0.3,1l-0.3,1l-0.3,1l-0.3,1l-0.3,1l-0.3,1l-0.3,1l-0.3,1l-0.3,1l-0.3,1l-0.3,1l-0.3,1l-0.3,1l-0.3,1l-0.3,1l-0.4,1
		l-0.3,1l-0.3,1l-0.3,1l-0.3,1l-0.3,1l-0.3,1l-0.3,1l-0.3,1l-0.3,1l-0.3,1l-0.3,1l-0.3,1l-0.3,1l-0.3,1l-0.3,1l-0.3,1l-0.3,1l-0.3,1
		l-0.3,1l-0.3,1l-0.3,1l-0.3,1l-0.3,1l-0.1,0.2l-10.9,0C95.2,90.8,87.4,83.9,79.7,77l0-16c0.8-0.7,1.6-1.3,2.4-2l2.8-2.4l2.8-2.4
		l2.8-2.4l2.8-2.4l2.8-2.4l2.8-2.4l2.8-2.4l2.8-2.4l2.8-2.4l2.8-2.4l2.8-2.4l2.8-2.4l2.8-2.4l2.8-2.4l2.8-2.4l2.8-2.4l2.8-2.4
		l2.8-2.4l2.8-2.4l2.8-2.4l2.8-2.4C142,8.8,142.3,8.6,142.6,8.3"/>
	<path class="st1" d="M2.2,5.2l0.6,2.2l0.6,2.2l0.6,2.2l0.6,2.2l0.6,2.2L6,18.7l0.7,2.2l0.7,2.2L8,25.4l0.7,2.2l0.7,2.2l0.7,2.2
		l0.7,2.2l0.7,2.2l0.7,2.2l0.7,2.2l0.7,2.2l0.7,2.2l0.7,2.2l0.7,2.2l0.7,2.2l0.3,1.1l0.3,1.1l0.3,1.1l0.3,1.1l0.3,1.1l0.3,1.1
		l0.3,1.1l0.3,1l0.3,1.1l0.3,1.1l0.3,1.1l0.3,1.1l0.3,1l0.3,1l0.3,1.1l0.3,1l0.4,1.1l0.3,1l0.4,1.1l0.3,1l0.4,1l0.4,1l0.4,1
		c2.5,7.3,5.1,15.1,8,23.2c4.2,0,8.4,0,12.6,0c8.2-7.3,16.3-14.6,24.4-21.8c0-5.9,0-11.7,0-17.6c-0.9-0.7-1.7-1.5-2.6-2.2l-3.1-2.6
		l-3.1-2.6l-3.1-2.6l-3.1-2.6l-3.1-2.6l-3.1-2.6l-3.1-2.6l-3.1-2.6L39.2,35l-3.1-2.6l-3-2.6l-3-2.6L27,24.7l-3-2.6l-3-2.6l-3-2.6
		l-3-2.6l-3-2.6l-3-2.6l-3-2.6l-3-2.6c-0.3-0.3-0.7-0.7-1-1C1.8,3.8,2,4.5,2.2,5.2z M5.2,8.2l2.9,2.4L11,13l2.9,2.4l2.9,2.4l2.9,2.4
		l2.9,2.4l2.9,2.4l2.9,2.4l2.9,2.4l2.9,2.4l2.9,2.4l2.9,2.4l2.9,2.4l2.9,2.4l2.9,2.4l2.9,2.4l2.9,2.4l2.9,2.4l2.9,2.4l2.9,2.4
		l2.9,2.4c0.8,0.7,1.6,1.4,2.4,2.1l0,16.3c-7.8,7-15.6,14-23.5,21l-11,0L33.3,98l-0.3-1l-0.3-1l-0.3-1l-0.3-1l-0.3-1l-0.3-1l-0.3-1
		l-0.3-1l-0.3-1l-0.3-1l-0.3-1l-0.3-1l-0.3-1l-0.3-1l-0.3-1l-0.3-1l-0.3-1l-0.3-1l-0.3-1l-0.3-1L26,77l-0.3-1l-0.4-1l-0.4-1l-0.4-1
		l-0.3-1l-0.4-1l-0.3-1.1l-0.3-1l-0.3-1l-0.3-1.1l-0.3-1l-0.3-1.1l-0.3-1l-0.3-1.1l-0.3-1.1l-0.3-1.1l-0.3-1.1l-0.3-1.1l-0.3-1.1
		l-0.3-1L18.7,55l-0.3-1.1l-0.3-1.1l-0.3-1.1l-0.6-2l-0.6-2l-0.6-2l-0.6-2l-0.6-2l-0.6-2l-0.6-2l-0.6-2l-0.6-2l-0.6-2l-0.6-2l-0.6-2
		l-0.6-2l-0.6-2l-0.6-2l-0.6-2l-0.6-2l-0.6-2l-0.6-2l-0.6-2l-0.6-2C4.7,8.7,4.5,8.1,4.3,7.4C4.6,7.7,4.9,7.9,5.2,8.2z M146,3
		c-0.3,0.3-0.7,0.7-1,1l-3,2.6l-3,2.6l-3,2.6l-3,2.6l-3,2.6l-3,2.6l-3,2.6l-3,2.6l-3,2.6l-3,2.6l-3.1,2.6l-3,2.6l-3.1,2.6l-3.1,2.6
		l-3.1,2.6l-3.1,2.6l-3.1,2.6l-3.1,2.6L87,52.8L84,55.3l-3.1,2.6c-0.9,0.7-1.7,1.5-2.6,2.2c0,5.8,0,11.7,0,17.6
		c8.1,7.2,16.2,14.5,24.4,21.8c4.2,0,8.4,0,12.6,0c2.9-8.2,5.5-15.9,8-23.2l0.4-1l0.4-1l0.4-1l0.3-1L125,71l0.3-1l0.4-1.1l0.3-1
		l0.3-1l0.3-1.1l0.3-1l0.3-1.1l0.3-1l0.3-1.1l0.3-1.1l0.3-1l0.3-1.1l0.3-1.1l0.3-1.1l0.3-1.1l0.3-1.1l0.3-1.1l0.3-1.1l0.7-2.2
		l0.7-2.2l0.7-2.2l0.7-2.2l0.7-2.2l0.7-2.2l0.7-2.2l0.7-2.2l0.7-2.2l0.7-2.2l0.7-2.2l0.7-2.2l0.7-2.2l0.7-2.2l0.7-2.2l0.7-2.2
		l0.7-2.2l0.6-2.2l0.6-2.2l0.6-2.2l0.6-2.2C145.6,4.3,145.8,3.6,146,3z M143.2,7.3c-0.2,0.6-0.4,1.3-0.5,1.9l-0.6,2l-0.6,2l-0.6,2
		l-0.6,2l-0.6,2l-0.6,2l-0.6,2l-0.6,2l-0.6,2l-0.6,2l-0.6,2l-0.6,2l-0.6,2l-0.6,2l-0.6,2l-0.6,2l-0.6,2l-0.6,2l-0.6,2l-0.6,2l-0.6,2
		l-0.3,1.1l-0.3,1.1l-0.3,1.1l-0.3,1.1l-0.3,1.1l-0.3,1.1l-0.3,1.1l-0.3,1.1l-0.3,1.1l-0.3,1.1l-0.3,1.1l-0.3,1l-0.3,1.1l-0.3,1
		l-0.3,1.1l-0.3,1l-0.3,1l-0.3,1.1l-0.4,1l-0.3,1l-0.4,1l-0.4,1l-0.4,1l-0.3,1l-0.3,1l-0.3,1l-0.3,1l-0.3,1l-0.3,1l-0.3,1l-0.3,1
		l-0.3,1l-0.3,1l-0.3,1l-0.3,1l-0.3,1l-0.3,1l-0.3,1l-0.3,1l-0.3,1l-0.3,1l-0.3,1l-0.3,1l-0.3,1l-0.3,1l-0.1,0.2l-11,0
		c-7.9-7-15.7-14-23.5-21l0-16.3c0.8-0.7,1.6-1.4,2.4-2.1l2.9-2.4l2.9-2.4l2.9-2.4l2.9-2.4l2.9-2.4l2.9-2.4l2.9-2.4l2.9-2.4L108,37
		l2.9-2.4l2.9-2.4l2.9-2.4l2.9-2.4l2.9-2.4l2.9-2.4l2.9-2.4l2.9-2.4l2.9-2.4l2.9-2.4l2.9-2.4l2.9-2.4C142.6,7.8,142.9,7.5,143.2,7.3
		z"/>
	<path class="st0" d="M519.1,73.5h-3.3l-4.4,10.7c-0.5,1.1-0.9,2.3-1.4,3.5h0c-0.2-0.6-0.4-1.1-0.7-1.7l-0.7-1.7l-4.4-10.7h-3.2
		v16.5h1.9V76.8c0-0.6,0-1.2,0-1.8h0c0.2,0.5,0.4,1,0.6,1.5l5.6,13.5h1.9l5.6-13.7c0.2-0.6,0.3-0.7,0.4-0.9c0.1-0.2,0.1-0.4,0.2-0.6
		h0c0,0.7,0,1.3,0,2v13.3h1.9V73.5z M483,85.1h-7.3l3.6-10.1L483,85.1z M483.6,86.6l1.3,3.5h2l-6.2-16.5H478L472,90.1h2l1.3-3.5
		H483.6z M449.8,75.1h8.8v-1.6H448v16.5h10.6v-1.6h-8.8v-6.2h8.4v-1.6h-8.4V75.1z M428.5,75.2h5.4v-1.7h-12.6v1.7h5.4v14.8h1.9V75.2
		z M386.8,75.1h8.8v-1.6h-10.6v16.5h10.6v-1.6h-8.8v-6.2h8.4v-1.6h-8.4V75.1z M354.6,85.1h-7.3L351,75L354.6,85.1z M355.2,86.6
		l1.3,3.5h2l-6.2-16.5h-2.6l-6.1,16.5h2l1.3-3.5H355.2z M322.4,73.5h-1.9v16.5h10.4v-1.7h-8.5V73.5z M303.2,73.5v11.6
		c0,3.2-0.5,3.5-4.9,3.5c-2.7,0-3.6-0.2-4.1-1.1c-0.2-0.4-0.3-1.1-0.3-2.4V73.5H292v11.6c0,2.9,0.6,4,2.5,4.7c0.8,0.3,1.8,0.4,4,0.4
		c3.6,0,4.9-0.3,5.8-1.5c0.6-0.8,0.8-1.7,0.8-3.6V73.5H303.2z M276.5,73.5h-3.3l-4.4,10.7c-0.5,1.1-0.9,2.3-1.4,3.5h0
		c-0.2-0.6-0.4-1.1-0.7-1.7l-0.7-1.7l-4.4-10.7h-3.2v16.5h1.9V76.8c0-0.6,0-1.2,0-1.8h0c0.2,0.5,0.4,1,0.6,1.5l5.6,13.5h1.9
		l5.6-13.7c0.2-0.6,0.3-0.7,0.4-0.9c0.1-0.2,0.1-0.4,0.2-0.6h0c0,0.7,0,1.3,0,2v13.3h1.9V73.5z M232.4,81.8v-6.7h6
		c1.3,0,2.1,0.3,2.5,0.8c0.3,0.5,0.4,1.2,0.4,2.9c0,2.2-0.9,3-3.6,3H232.4z M230.5,90.1h1.9v-6.7h5.6c1.3,0,1.8,0.1,2.3,0.5
		c0.6,0.5,0.8,1.1,0.8,2.3v3.8h1.9v-4.2c0-2-0.9-3.1-2.6-3.2v0c2.2-0.4,2.9-1.4,2.9-4.4c0-3.5-1.3-4.8-4.8-4.8h-7.9V90.1z
		 M208.4,74.9c3.4,0,4.1,0.2,4.7,1.4c0.4,1,0.4,1,0.4,7.5c0,2.2-0.2,3.2-0.8,3.9c-0.6,0.6-1.4,0.8-4.4,0.8c-3.4,0-4.1-0.2-4.7-1.4
		c-0.4-1-0.4-1-0.4-7.5c0-2.2,0.2-3.2,0.8-3.9C204.6,75.1,205.4,74.9,208.4,74.9 M208.3,73.3c-1.4,0-2.7,0.1-3.3,0.2
		c-1.4,0.3-2.4,0.9-2.9,1.9c-0.7,1.3-0.8,2.2-0.8,5.7c0,3.8,0,4.4,0.3,5.7c0.3,1.5,1,2.4,2.2,2.9c1.1,0.4,1.9,0.5,4.8,0.5
		c2.4,0,3.3-0.1,4.3-0.5c1.2-0.5,1.9-1.4,2.2-2.9c0.3-1.3,0.3-1.8,0.3-5.7c0-2.1,0-2.5-0.1-3.3c-0.3-2.1-1-3.4-2.5-3.9
		C211.9,73.5,210.9,73.3,208.3,73.3 M179,75.1h8.3v-1.6h-10.1v16.5h1.9v-7.6h8.1v-1.6H179V75.1z"/>
	<rect y="0.2" class="st2" width="519.9" height="100.3"/>
</g>
</svg>
